<?xml version="1.0" encoding="utf-8"?>
<!-- Generator: Adobe Illustrator 24.0.0, SVG Export Plug-In . SVG Version: 6.00 Build 0)  -->
<svg version="1.1" id="Ebene_1" xmlns="http://www.w3.org/2000/svg" xmlns:xlink="http://www.w3.org/1999/xlink" x="0px" y="0px"
	 viewBox="0 0 220 35.1" style="enable-background:new 0 0 220 35.1;" xml:space="preserve">
<style type="text/css">
	.st0{fill:#003B70;}
</style>
<g>
	<path class="st0" d="M73,13.5h8.1l-8.8,18.9h-8.1L73,13.5z M148.7,13.5h8.1l-3.8,8.1h-8.1L148.7,13.5z M184.7,0l-5,10.8h-8.1
		l5-10.8h-35.1l-15.1,32.4H96.6L111.7,0H6.3L0,13.5h10.8L0.7,35.1h2.7l11.3-24.3H4l3.8-8.1h37.8l-3.8,8.1h-8.1l-1.3,2.7h8.1
		l-3.8,8.1h-8.1l-1.3,2.7h18.9l1.3-2.7h-8.1l8.8-18.9h37.8l-3.8,8.1H71.5L60.2,35.1h13.5L88.8,2.7h18.9l-3.8,8.1H93.2l-1.3,2.7h10.8
		l-3.8,8.1H88.1l-6.3,13.5h2.7l5-10.8h8.1l-5,10.8h56.8l11.3-24.3h-13.5l-6.3,13.5h10.8l-3.8,8.1H129l13.9-29.7h29.7l-5,10.8h13.5
		L187.4,0H184.7z"/>
	<polygon class="st0" points="130.7,0 120.6,21.6 112.5,21.6 122.5,0 119.8,0 108.5,24.3 122,24.3 133.4,0 	"/>
	<polygon class="st0" points="52.6,10.8 51.4,13.5 59.5,13.5 50.6,32.4 15.5,32.4 25.6,10.8 22.9,10.8 11.5,35.1 52.1,35.1 
		63.4,10.8 	"/>
	<polygon class="st0" points="195.5,0 184.2,24.3 197.7,24.3 199,21.6 188.2,21.6 197,2.7 216,2.7 212.3,10.8 201.3,10.8 200,13.5 
		211,13.5 202.2,32.4 172.3,32.4 177.3,21.6 163.8,21.6 157.5,35.1 160.2,35.1 165.3,24.3 173.4,24.3 168.3,35.1 203.6,35.1 220,0 	
		"/>
</g>
</svg>
